<svg width="279" height="127" viewBox="0 0 279 127" fill="none" xmlns="http://www.w3.org/2000/svg">
<path d="M24.696 79.816C20.6 79.816 16.8027 79.1333 13.304 77.768C9.80533 76.488 6.94667 74.44 4.728 71.624C2.50933 68.808 1.18667 65.1813 0.76 60.744C0.418667 56.904 1.016 52.7653 2.552 48.328C4.17333 43.8053 6.47733 39.2827 9.464 34.76C12.536 30.2373 16.0347 25.928 19.96 21.832C23.8853 17.736 28.024 14.0667 32.376 10.824C36.8133 7.58133 41.208 5.02133 45.56 3.144C49.912 1.26666 54.008 0.327995 57.848 0.327995C60.92 0.327995 63.6507 1.30933 66.04 3.272C68.4293 5.23466 69.624 7.88 69.624 11.208C69.624 13.8533 68.7707 16.072 67.064 17.864C65.3573 19.5707 63.1813 20.424 60.536 20.424C60.4507 20.424 60.024 20.3813 59.256 20.296C58.488 20.2107 58.0613 19.912 57.976 19.4C58.4027 18.376 59.1707 17.48 60.28 16.712C61.4747 15.944 62.5413 14.92 63.48 13.64C64.4187 12.2747 64.76 10.2693 64.504 7.62399C64.4187 6.088 63.7787 5.02133 62.584 4.424C61.4747 3.74133 60.1947 3.39999 58.744 3.39999C55.16 3.39999 51.3627 4.424 47.352 6.472C43.3413 8.43467 39.3733 11.1653 35.448 14.664C31.608 18.0773 27.9387 21.9173 24.44 26.184C21.0267 30.4507 17.9973 34.888 15.352 39.496C12.792 44.104 10.8293 48.6267 9.464 53.064C8.09867 57.416 7.58667 61.3413 7.928 64.84C8.35467 68.68 10.0613 71.5387 13.048 73.416C16.12 75.2933 19.4053 76.232 22.904 76.232C26.9147 76.232 31.096 75.592 35.448 74.312C39.8 72.9467 44.0667 71.24 48.248 69.192C52.5147 67.144 56.4827 65.0107 60.152 62.792C63.8213 60.5733 66.9787 58.5253 69.624 56.648C72.3547 54.7707 74.3173 53.3627 75.512 52.424C75.5973 52.3387 75.6827 52.296 75.768 52.296C75.9387 52.296 76.024 52.5093 76.024 52.936C76.024 53.2773 75.9387 53.6613 75.768 54.088C75.6827 54.5147 75.4267 54.9413 75 55.368C72.2693 58.184 68.8987 61.0427 64.888 63.944C60.9627 66.76 56.696 69.3627 52.088 71.752C47.48 74.1413 42.7867 76.0613 38.008 77.512C33.3147 79.048 28.8773 79.816 24.696 79.816ZM81.107 78.28C79.6563 78.28 77.907 77.7253 75.859 76.616C73.811 75.5067 72.403 74.312 71.635 73.032C71.123 72.1787 70.867 71.1547 70.867 69.96C70.867 67.2293 71.8483 63.6027 73.811 59.08C75.859 54.472 78.419 49.5227 81.491 44.232C82.8563 41.8427 84.6057 39.0693 86.739 35.912C88.9577 32.7547 91.4323 29.512 94.163 26.184C96.8937 22.7707 99.7523 19.528 102.739 16.456C105.811 13.384 108.84 10.696 111.827 8.392C114.899 6.088 117.8 4.46666 120.531 3.528C121.64 3.10133 122.622 2.88799 123.475 2.88799C125.096 2.88799 126.206 3.44266 126.803 4.55199C127.486 5.576 128.382 6.42933 129.491 7.112C130.174 7.53867 130.515 8.22133 130.515 9.16C130.515 11.1227 129.448 13.4693 127.315 16.2C125.182 18.9307 122.408 21.832 118.995 24.904C115.582 27.976 111.912 31.048 107.987 34.12C104.062 37.1067 100.264 39.88 96.595 42.44C93.011 45 89.939 47.1333 87.379 48.84C84.819 50.5467 83.1977 51.6133 82.515 52.04C81.235 54.4293 80.0403 57.16 78.931 60.232C77.8217 63.304 77.267 66.2053 77.267 68.936C77.267 69.96 77.395 71.112 77.651 72.392C77.9923 73.5867 78.8457 74.184 80.211 74.184C81.491 74.184 82.9843 73.7147 84.691 72.776C86.3977 71.8373 88.0617 70.8133 89.683 69.704C91.3043 68.5093 92.5843 67.528 93.523 66.76C95.7417 64.968 97.7043 63.1333 99.411 61.256C101.118 59.3787 103.123 57.2453 105.427 54.856C105.598 54.6853 105.768 54.5573 105.939 54.472C106.11 54.3013 106.323 54.216 106.579 54.216C107.091 54.216 107.347 54.5147 107.347 55.112C107.347 55.624 107.134 56.0933 106.707 56.52C103.294 60.2747 99.7097 64.1573 95.955 68.168C92.2857 72.1787 88.1897 75.336 83.667 77.64C82.8137 78.0667 81.9603 78.28 81.107 78.28ZM86.611 45.384C87.891 44.9573 89.683 43.9333 91.987 42.312C94.291 40.6053 96.851 38.6 99.667 36.296C102.568 33.992 105.47 31.56 108.371 29C111.358 26.3547 114.088 23.8373 116.563 21.448C119.123 18.9733 121.214 16.8827 122.835 15.176C124.542 13.384 125.523 12.1467 125.779 11.464C125.95 10.952 126.035 10.6107 126.035 10.44C126.035 9.75733 125.694 9.288 125.011 9.032C124.414 8.776 123.731 8.64799 122.963 8.64799C122.536 8.64799 122.11 8.69066 121.683 8.77599C121.256 8.86133 120.872 8.94667 120.531 9.032C119.08 9.544 117.16 10.824 114.771 12.872C112.382 14.8347 109.822 17.2667 107.091 20.168C104.36 22.984 101.63 25.9707 98.899 29.128C96.2537 32.2853 93.8217 35.3147 91.603 38.216C89.4697 41.032 87.8057 43.4213 86.611 45.384ZM125.19 78.152C124.422 78.152 123.526 77.8107 122.502 77.128C121.563 76.4453 120.753 75.6773 120.07 74.824C119.387 73.8853 119.046 73.032 119.046 72.264C119.046 70.984 119.515 69.2773 120.454 67.144C121.393 64.9253 122.459 62.7493 123.654 60.616C124.934 58.4827 125.915 56.904 126.598 55.88C125.403 56.904 123.867 58.568 121.99 60.872C120.198 63.0907 118.235 65.48 116.102 68.04C114.054 70.5147 112.049 72.648 110.086 74.44C108.209 76.232 106.587 77.128 105.222 77.128C103.345 77.128 101.809 76.488 100.614 75.208C99.5047 73.8427 98.95 72.2213 98.95 70.344C98.95 67.784 99.6753 65.0533 101.126 62.152C102.577 59.1653 104.454 56.3067 106.758 53.576C109.147 50.76 111.707 48.2 114.438 45.896C117.254 43.592 119.985 41.7573 122.63 40.392C125.361 39.0267 127.793 38.344 129.926 38.344C132.23 38.344 134.107 38.8987 135.558 40.008C137.009 41.032 137.734 42.6107 137.734 44.744C137.734 45.0853 137.649 45.7253 137.478 46.664C137.393 47.6027 137.094 48.072 136.582 48.072C136.326 48.072 135.899 47.688 135.302 46.92C134.79 46.152 134.065 45.384 133.126 44.616C132.187 43.848 130.993 43.464 129.542 43.464C127.153 43.464 124.635 44.36 121.99 46.152C119.43 47.8587 116.955 50.0773 114.566 52.808C112.177 55.4533 110.086 58.184 108.294 61C106.502 63.816 105.137 66.248 104.198 68.296C103.942 68.8933 103.686 69.5333 103.43 70.216C103.259 70.8987 103.174 71.5813 103.174 72.264C103.174 73.032 103.387 73.416 103.814 73.416C104.241 73.416 105.137 72.9467 106.502 72.008C107.953 71.0693 108.977 70.3867 109.574 69.96C112.561 67.8267 115.377 65.3947 118.022 62.664C120.753 59.9333 123.185 57.1173 125.318 54.216C126.001 53.2773 126.641 52.3387 127.238 51.4C127.835 50.4613 128.433 49.5653 129.03 48.712C129.457 48.1147 129.883 47.816 130.31 47.816C131.249 47.816 132.145 48.456 132.998 49.736C133.937 51.016 134.406 52.1253 134.406 53.064C134.406 53.4907 134.321 53.7467 134.15 53.832C134.065 53.9173 133.809 54.1733 133.382 54.6C132.102 55.88 130.822 57.672 129.542 59.976C128.347 62.28 127.281 64.6267 126.342 67.016C125.489 69.32 124.849 71.2827 124.422 72.904C124.337 73.16 124.251 73.5013 124.166 73.928C124.166 74.2693 124.379 74.3973 124.806 74.312C125.659 74.056 127.025 73.1173 128.902 71.496C130.865 69.7893 132.955 67.8693 135.174 65.736C137.478 63.5173 139.526 61.4693 141.318 59.592C143.195 57.7147 144.433 56.392 145.03 55.624C145.201 55.4533 145.371 55.2827 145.542 55.112C145.798 54.856 146.054 54.728 146.31 54.728C146.907 54.728 147.206 55.0267 147.206 55.624C147.206 55.9653 146.523 56.9893 145.158 58.696C143.793 60.3173 142.086 62.2373 140.038 64.456C137.99 66.5893 135.899 68.7227 133.766 70.856C131.633 72.904 129.755 74.6533 128.134 76.104C126.598 77.4693 125.617 78.152 125.19 78.152ZM156.608 78.536C155.243 78.536 153.792 77.8533 152.256 76.488C150.805 75.0373 150.08 73.6293 150.08 72.264C150.08 70.5573 150.677 68.6373 151.872 66.504C153.067 64.2853 154.475 62.152 156.096 60.104C157.717 58.056 159.125 56.3067 160.32 54.856C161.515 53.32 162.112 52.296 162.112 51.784V51.528C161.344 50.8453 160.619 50.2053 159.936 49.608C159.253 48.9253 158.315 48.584 157.12 48.584C156.267 48.584 155.157 49.096 153.792 50.12C152.512 51.144 151.189 52.3387 149.824 53.704C148.459 55.0693 147.221 56.3493 146.112 57.544C145.003 58.7387 144.192 59.5493 143.68 59.976C143.339 60.3173 142.997 60.5307 142.656 60.616C142.4 60.7013 142.187 60.744 142.016 60.744C141.675 60.744 141.504 60.5733 141.504 60.232C141.504 59.8907 141.675 59.5493 142.016 59.208C143.381 57.416 144.96 55.5813 146.752 53.704C148.544 51.8267 150.165 50.12 151.616 48.584C153.067 46.9627 153.92 45.8107 154.176 45.128C154.859 43.1653 155.541 41.416 156.224 39.88C156.992 38.344 158.187 36.8933 159.808 35.528C160.491 34.8453 161.301 34.2907 162.24 33.864C163.179 33.4373 164.117 33.224 165.056 33.224C165.909 33.224 166.592 33.48 167.104 33.992C167.701 34.4187 168 35.1013 168 36.04C168 37.064 167.531 38.088 166.592 39.112C165.739 40.136 164.715 41.1173 163.52 42.056C162.325 42.9093 161.259 43.6773 160.32 44.36C159.467 45.0427 159.083 45.5973 159.168 46.024C159.68 46.3653 160.661 46.792 162.112 47.304C163.648 47.816 164.715 48.072 165.312 48.072C165.995 48.072 166.635 47.944 167.232 47.688C167.829 47.432 168.427 47.304 169.024 47.304C169.877 47.304 170.731 47.56 171.584 48.072C172.437 48.584 172.864 49.352 172.864 50.376C172.864 51.2293 172.523 52.04 171.84 52.808C171.243 53.4907 170.603 54.088 169.92 54.6C168.896 55.368 167.531 56.52 165.824 58.056C164.117 59.592 162.368 61.2987 160.576 63.176C158.869 65.0533 157.376 66.9307 156.096 68.808C154.901 70.6 154.304 72.1787 154.304 73.544C154.304 73.8853 154.389 74.2267 154.56 74.568C154.645 74.6533 154.816 74.696 155.072 74.696C156.779 74.696 158.699 73.928 160.832 72.392C162.965 70.856 165.099 68.9787 167.232 66.76C169.451 64.5413 171.499 62.3653 173.376 60.232C175.339 58.0133 177.003 56.3067 178.368 55.112C178.539 54.9413 178.752 54.7707 179.008 54.6C179.264 54.4293 179.52 54.344 179.776 54.344C180.203 54.344 180.416 54.6427 180.416 55.24C180.416 55.5813 179.819 56.4347 178.624 57.8C177.515 59.1653 176.064 60.7867 174.272 62.664C172.48 64.5413 170.603 66.4613 168.64 68.424C166.763 70.3867 165.013 72.136 163.392 73.672C161.771 75.1227 160.619 76.1467 159.936 76.744C158.997 77.512 158.315 77.9813 157.888 78.152C157.461 78.408 157.035 78.536 156.608 78.536ZM203.31 28.744C201.347 28.744 200.366 28.0187 200.366 26.568C200.366 25.544 200.921 24.4347 202.03 23.24C203.139 22.0453 204.761 21.192 206.894 20.68C208.174 20.3387 209.198 20.168 209.966 20.168C210.819 20.0827 211.63 19.912 212.398 19.656C212.057 21.2773 211.331 23.0267 210.222 24.904C209.198 26.7813 207.833 27.9333 206.126 28.36C205.273 28.616 204.334 28.744 203.31 28.744ZM182.83 79.688C181.465 79.688 180.185 79.1333 178.99 78.024C177.881 76.9147 177.198 75.72 176.942 74.44C177.198 72.8187 177.753 70.856 178.606 68.552C179.545 66.1627 180.611 63.688 181.806 61.128C183.001 58.568 184.195 56.1787 185.39 53.96C186.585 51.656 187.609 49.8213 188.462 48.456C186.841 49.9067 185.091 51.528 183.214 53.32C181.422 55.112 179.715 56.776 178.094 58.312C178.009 58.3973 177.795 58.568 177.454 58.824C177.198 59.08 176.942 59.208 176.686 59.208C176.089 59.208 175.79 58.952 175.79 58.44C175.79 58.0133 175.961 57.6293 176.302 57.288C178.606 54.728 180.995 52.168 183.47 49.608C186.03 47.048 188.505 44.4027 190.894 41.672C191.662 40.7333 192.302 40.008 192.814 39.496C193.411 38.8987 194.307 38.6 195.502 38.6C196.014 38.6 196.782 38.728 197.806 38.984C198.915 39.1547 199.811 39.496 200.494 40.008C201.262 40.52 201.39 41.16 200.878 41.928C200.281 42.8667 199.257 44.4027 197.806 46.536C196.355 48.6693 194.691 51.1013 192.814 53.832C191.022 56.5627 189.23 59.336 187.438 62.152C185.731 64.8827 184.323 67.3573 183.214 69.576C182.105 71.7947 181.55 73.4587 181.55 74.568C181.55 75.08 181.721 75.336 182.062 75.336C182.574 75.336 183.427 74.8667 184.622 73.928C185.902 72.9893 187.139 72.008 188.334 70.984C189.614 69.8747 190.467 69.1493 190.894 68.808C193.369 66.6747 195.801 64.4987 198.19 62.28C200.579 59.976 202.841 57.5867 204.974 55.112C205.145 54.9413 205.358 54.6853 205.614 54.344C205.955 54.0027 206.297 53.832 206.638 53.832C207.065 53.832 207.278 54.088 207.278 54.6C207.278 55.1973 207.065 55.7947 206.638 56.392C205.529 57.7573 204.291 59.1227 202.926 60.488C201.561 61.768 200.281 63.048 199.086 64.328C196.867 66.5467 194.691 68.7653 192.558 70.984C190.51 73.1173 188.462 75.336 186.414 77.64C185.987 78.152 185.433 78.6213 184.75 79.048C184.153 79.4747 183.513 79.688 182.83 79.688ZM211.116 80.328C209.58 80.328 208.257 79.816 207.148 78.792C206.124 77.768 205.313 76.5307 204.716 75.08C204.204 73.544 203.948 72.0933 203.948 70.728C203.948 69.3627 204.119 68.04 204.46 66.76C204.801 65.3947 205.271 64.072 205.868 62.792C206.977 60.3173 208.3 57.5867 209.836 54.6C211.457 51.528 213.164 48.4133 214.956 45.256C216.833 42.0133 218.711 39.0693 220.588 36.424C219.137 37.0213 217.431 37.704 215.468 38.472C213.591 39.1547 212.353 39.496 211.756 39.496C211.415 39.4107 211.159 39.1547 210.988 38.728C210.903 38.3013 210.86 37.8747 210.86 37.448C210.86 35.656 211.713 34.4613 213.42 33.864C216.065 33.0107 219.607 32.2427 224.044 31.56C227.287 27.2933 230.785 23.0267 234.54 18.76C238.38 14.4933 242.263 11.1227 246.188 8.64799C246.956 8.136 247.809 8.392 248.748 9.416C249.687 10.3547 250.199 11.336 250.284 12.36C250.284 13.2987 249.943 13.9387 249.26 14.28C245.847 16.4133 242.689 18.8453 239.788 21.576C236.887 24.2213 233.9 27.2507 230.828 30.664C232.535 30.408 234.028 30.2373 235.308 30.152C236.588 30.0667 237.399 30.024 237.74 30.024C237.996 30.024 238.423 30.024 239.02 30.024C239.617 29.9387 240.257 29.896 240.94 29.896C241.964 29.896 242.903 29.9813 243.756 30.152C244.695 30.3227 245.164 30.6213 245.164 31.048C245.164 31.3893 244.78 31.688 244.012 31.944C243.329 32.1147 242.561 32.2427 241.708 32.328C240.855 32.328 240.215 32.3707 239.788 32.456C237.228 32.7973 234.924 33.1387 232.876 33.48C230.913 33.8213 229.079 34.248 227.372 34.76C225.409 37.1493 223.873 39.1547 222.764 40.776C221.74 42.3973 220.844 43.8907 220.076 45.256C219.393 46.536 218.54 47.9867 217.516 49.608C215.297 53.8747 213.377 58.2267 211.756 62.664C210.22 67.1013 209.452 70.6853 209.452 73.416C209.452 73.8427 209.495 74.184 209.58 74.44C209.665 74.696 209.921 74.824 210.348 74.824C210.86 74.824 211.329 74.696 211.756 74.44C212.268 74.0987 212.695 73.7573 213.036 73.416C214.231 72.4773 215.34 71.4107 216.364 70.216C217.473 68.936 218.54 67.7413 219.564 66.632C221.441 64.584 223.361 62.5787 225.324 60.616C227.287 58.6533 229.207 56.6907 231.084 54.728C231.255 54.5573 231.425 54.4293 231.596 54.344C231.767 54.1733 231.937 54.088 232.108 54.088C232.705 54.088 233.004 54.4293 233.004 55.112C233.004 55.368 232.833 55.752 232.492 56.264C231.468 57.6293 230.359 58.9947 229.164 60.36C227.969 61.64 226.817 62.9627 225.708 64.328C223.489 66.9733 221.271 69.576 219.052 72.136C216.919 74.696 214.785 77.3413 212.652 80.072C212.396 80.1573 212.14 80.2 211.884 80.2C211.628 80.2853 211.372 80.328 211.116 80.328ZM208.45 126.024C204.525 126.024 202.562 124.061 202.562 120.136C202.562 119.709 202.605 119.283 202.69 118.856C202.69 118.429 202.733 118.003 202.818 117.576C203.501 114.504 204.951 111.56 207.17 108.744C209.389 105.928 211.991 103.283 214.978 100.808C217.965 98.4187 220.994 96.1573 224.066 94.024C227.223 91.976 230.039 90.184 232.514 88.648C233.965 87.7093 235.799 86.5573 238.018 85.192C240.322 83.8267 242.754 82.3333 245.314 80.712C247.874 79.176 250.306 77.7253 252.61 76.36C253.549 73.9707 254.189 71.3253 254.53 68.424C254.957 65.4373 255.17 62.664 255.17 60.104V59.08C254.146 60.616 252.653 62.408 250.69 64.456C248.727 66.504 246.509 68.5093 244.034 70.472C241.559 72.3493 239.127 73.928 236.738 75.208C234.349 76.488 232.173 77.128 230.21 77.128C228.845 77.128 227.906 76.7013 227.394 75.848C226.967 74.9947 226.754 74.0133 226.754 72.904C226.754 69.9173 227.394 66.8453 228.674 63.688C229.954 60.5307 231.405 57.6293 233.026 54.984C234.647 52.2533 236.098 49.992 237.378 48.2C238.658 46.3227 239.298 45.256 239.298 45C239.298 44.9147 239.213 44.872 239.042 44.872C238.701 44.872 238.317 44.872 237.89 44.872C237.549 44.872 237.506 44.616 237.762 44.104C238.957 42.6533 240.45 41.3733 242.242 40.264C244.034 39.1547 245.741 38.6 247.362 38.6C247.959 38.6 248.642 38.856 249.41 39.368C250.263 39.7947 250.69 40.3493 250.69 41.032C250.69 41.4587 250.434 41.928 249.922 42.44C249.325 43.0373 248.599 43.72 247.746 44.488C246.978 45.256 245.911 46.4507 244.546 48.072C243.778 48.9253 242.711 50.3333 241.346 52.296C239.981 54.1733 238.573 56.3493 237.122 58.824C235.671 61.2133 234.434 63.6027 233.41 65.992C232.471 68.296 232.002 70.3013 232.002 72.008C232.002 72.264 232.002 72.5627 232.002 72.904C232.087 73.16 232.301 73.416 232.642 73.672C233.837 73.7573 235.33 73.2453 237.122 72.136C238.914 70.9413 240.791 69.448 242.754 67.656C244.802 65.7787 246.722 63.816 248.514 61.768C250.391 59.6347 252.013 57.672 253.378 55.88C254.829 54.0027 255.853 52.5093 256.45 51.4C257.389 49.6933 258.797 48.84 260.674 48.84C262.039 48.84 262.807 49.1387 262.978 49.736C263.234 50.3333 263.362 51.144 263.362 52.168C263.362 55.496 263.149 58.44 262.722 61C262.381 63.4747 261.698 66.2907 260.674 69.448C266.135 64.7547 271.341 59.8053 276.29 54.6C276.375 54.4293 276.546 54.216 276.802 53.96C277.143 53.704 277.399 53.576 277.57 53.576C278.082 53.576 278.338 53.832 278.338 54.344C278.338 55.0267 278.082 55.7093 277.57 56.392C276.802 57.3307 275.949 58.2693 275.01 59.208C274.157 60.1467 273.303 61.0853 272.45 62.024C270.402 64.2427 268.311 66.4613 266.178 68.68C264.045 70.8133 261.783 72.8613 259.394 74.824C255.469 85.1493 250.306 94.1947 243.906 101.96C237.591 109.811 229.613 116.509 219.97 122.056C218.349 122.995 216.514 123.891 214.466 124.744C212.418 125.597 210.413 126.024 208.45 126.024ZM211.394 122.824C213.698 122.824 216.215 121.971 218.946 120.264C221.591 118.643 224.237 116.595 226.882 114.12C229.527 111.645 231.917 109.171 234.05 106.696C236.269 104.307 238.018 102.301 239.298 100.68C240.749 98.7173 242.157 96.7547 243.522 94.792C244.887 92.9147 246.167 90.952 247.362 88.904C249.154 85.9173 250.647 83.016 251.842 80.2C251.927 79.944 251.842 79.7733 251.586 79.688C251.415 79.688 251.33 79.688 251.33 79.688C248.685 81.5653 245.997 83.4 243.266 85.192C240.621 87.0693 237.933 88.904 235.202 90.696C233.837 91.5493 232.002 92.7867 229.698 94.408C227.394 96.1147 224.919 97.992 222.274 100.04C219.629 102.173 217.111 104.349 214.722 106.568C212.333 108.872 210.37 111.091 208.834 113.224C207.298 115.443 206.53 117.405 206.53 119.112C206.53 120.477 207.085 121.416 208.194 121.928C209.218 122.525 210.285 122.824 211.394 122.824Z" fill="#000000"/>
</svg>
